{"title":"Meet.Monica.Velour.2010.LIMITED 480p.BRRip.XviD.Ac3.Feel-Free","uid":6596052,"size":1359177147,"categoryP":"video","categoryS":"movies","magnet":"?xt=urn:btih:455a709798673710feae50e2eb7fb6db2040b6b1&amp;dn=Meet.Monica.Velour.2010.LIMITED+480p.BRRip.XviD.Ac3.Feel-Free&amp;tr=udp%3A%2F%2Ftracker.openbittorrent.com%3A80&amp;tr=udp%3A%2F%2Fopen.demonii.com%3A1337&amp;tr=udp%3A%2F%2Ftracker.coppersurfer.tk%3A6969&amp;tr=udp%3A%2F%2Fexodus.desync.com%3A6969","seeders":0,"leechers":1,"uploader":".BONE.","files":7,"time":1313018967,"description":"\nGenre: Comedy | Drama | Romance\nLanguage:English\n &lt;a href=&quot;\nhttp://www.imdb.com/title/tt1291549/&quot; rel=&quot;nofollow&quot; target=&quot;_NEW&quot;&gt;\nhttp://www.imdb.com/title/tt1291549/&lt;/a&gt;\n\nSource:LIMITED.720p.BluRay.x264-PSYCHD Thanks!\n\nFormat : AVI\nFormat/Info : Audio Video Interleave\nFile size : 1.26 GiB\nDuration : 1h 37mn\nOverall bit rate : 1 861 Kbps\n\nVideo\nID : 0\nFormat : MPEG-4 Visual\nFormat profile : Advanced Simple@L5\nFormat settings, BVOP : Yes\nFormat settings, QPel : No\nFormat settings, GMC : No warppoints\nFormat settings, Matrix : Default (H.263)\nCodec ID : XVID\nCodec ID/Hint : XviD\nDuration : 1h 37mn\nBit rate : 1 403 Kbps\nWidth : 640 pixels\nHeight : 360 pixels\nDisplay aspect ratio : 16:9\nFrame rate : 23.976 fps\nColor space : YUV\nChroma subsampling : 4:2:0\nBit depth : 8 bits\nScan type : Progressive\nBits/(Pixel*Frame) : 0.254\nStream size : 977 MiB (75%)\nWriting library : XviD 1.2.1 (UTC 2008-12-04)\n\nAudio\nID : 1\nFormat : AC-3\nFormat/Info : Audio Coding 3\nMode extension : CM (complete main)\nCodec ID : 2000\nDuration : 1h 37mn\nBit rate mode : Constant\nBit rate : 448 Kbps\nChannel(s) : 6 channels\nChannel positions : Front: L C R, Side: L R, LFE\nSampling rate : 48.0 KHz\nBit depth : 16 bits\nStream size : 312 MiB (24%)\nAlignment : Aligned on interleaves\nInterleave, duration : 42 ms (1.00 video frame)\nInterleave, preload duration : 512 ms\n\n\nPlot:\nWhen an awkward teen meets his favorite porn star, whose career peaked in the '80s, an unexpected friendship follows as the young man gets a glimpse inside Monica Velour's current life as a single mom struggling to make ends meet\n &lt;a href=&quot;\nhttp://www.pix2links.com/images/57373323225971400689.png&quot; rel=&quot;nofollow&quot; target=&quot;_NEW&quot;&gt;\nhttp://www.pix2links.com/images/57373323225971400689.png&lt;/a&gt;\n &lt;a href=&quot;\nhttp://www.pix2links.com/images/72198707583092273277.png&quot; rel=&quot;nofollow&quot; target=&quot;_NEW&quot;&gt;\nhttp://www.pix2links.com/images/72198707583092273277.png&lt;/a&gt;\n &lt;a href=&quot;\nhttp://www.pix2links.com/images/24152388882610092977.png&quot; rel=&quot;nofollow&quot; target=&quot;_NEW&quot;&gt;\nhttp://www.pix2links.com/images/24152388882610092977.png&lt;/a&gt;","torrent":{"xt":"urn:btih:455a709798673710feae50e2eb7fb6db2040b6b1","amp;dn":"Meet.Monica.Velour.2010.LIMITED+480p.BRRip.XviD.Ac3.Feel-Free","amp;tr":["udp%3A%2F%2Ftracker.openbittorrent.com%3A80","udp%3A%2F%2Fopen.demonii.com%3A1337","udp%3A%2F%2Ftracker.coppersurfer.tk%3A6969","udp%3A%2F%2Fexodus.desync.com%3A6969"],"infoHash":"455a709798673710feae50e2eb7fb6db2040b6b1","infoHashBuffer":{"type":"Buffer","data":[69,90,112,151,152,103,55,16,254,174,80,226,235,127,182,219,32,64,182,177]},"announce":[],"urlList":[]}}